{"glyphs":{"0":{"ha":833,"x_min":74,"x_max":760,"o":"m 136 61 q 92 133 107 88 q 74 251 78 178 l 74 719 q 92 840 78 794 q 136 911 107 885 q 201 949 164 936 q 294 966 233 960 q 417 972 356 972 q 540 966 479 972 q 632 949 600 960 q 697 913 668 938 q 741 842 726 886 q 760 722 756 797 l 760 250 q 741 131 756 175 q 697 60 726 86 q 632 24 668 35 q 540 6 600 13 q 417 0 479 0 q 294 6 356 0 q 201 24 233 13 q 136 61 164 36 m 417 886 q 247 867 317 886 l 658 154 q 672 239 671 188 l 672 732 q 650 835 668 807 q 628 851 650 838 q 556 875 607 864 q 417 886 504 886 m 175 815 q 161 728 165 788 l 161 242 q 183 138 165 172 q 252 104 194 122 q 417 86 310 86 q 586 106 517 86 l 175 815 z "},"1":{"ha":833,"x_min":114,"x_max":721,"o":"m 492 93 l 721 93 l 721 0 l 114 0 l 114 93 l 407 93 l 407 736 q 385 839 403 804 q 356 858 381 847 q 281 878 331 869 q 157 888 231 888 l 143 888 l 143 972 l 157 972 q 276 966 215 972 q 368 949 336 960 q 431 913 401 938 q 474 842 460 886 q 492 726 488 799 l 492 93 z "},"2":{"ha":833,"x_min":74,"x_max":761,"o":"m 418 442 q 253 425 310 442 q 183 393 196 408 q 161 286 165 361 l 161 242 q 183 136 165 168 q 213 117 188 128 q 288 97 238 106 q 411 88 338 88 l 761 88 l 761 0 l 418 0 q 294 6 356 0 q 201 24 233 13 q 136 60 165 35 q 92 132 107 88 q 74 250 78 176 l 74 276 q 92 397 78 351 q 136 469 107 442 q 201 507 164 493 q 314 524 246 521 q 418 529 358 529 q 556 540 504 529 q 630 564 608 551 q 651 579 651 576 q 674 682 669 607 l 674 733 q 651 838 669 806 q 631 849 651 839 q 568 872 611 860 q 418 885 524 885 q 253 867 310 885 q 183 835 196 850 q 161 728 165 804 l 161 693 l 74 693 l 74 728 q 94 842 79 799 q 136 911 108 885 q 201 949 164 936 q 294 966 233 960 q 418 972 356 972 q 525 968 475 972 q 636 942 586 961 q 699 914 686 924 q 742 843 728 888 q 761 724 757 799 l 761 693 q 744 576 757 619 q 703 507 731 532 l 690 496 q 633 465 663 475 q 538 448 600 454 q 418 442 476 442 z "},"3":{"ha":833,"x_min":72,"x_max":761,"o":"m 201 24 q 136 61 164 36 q 93 131 108 88 q 74 243 78 174 l 74 279 l 160 279 l 160 242 q 183 138 167 164 q 251 103 193 121 q 417 86 308 86 l 426 86 q 556 99 485 86 q 647 132 626 111 q 667 180 660 144 q 674 260 674 215 q 667 337 674 300 q 651 392 661 374 q 630 408 651 394 q 556 432 608 421 q 417 443 504 443 l 403 443 l 403 529 l 417 529 q 544 538 493 529 q 620 559 594 547 q 650 581 646 571 q 674 686 668 608 l 674 731 q 650 833 668 806 q 588 866 642 849 q 432 885 533 883 l 403 885 q 284 875 332 885 q 212 853 236 865 q 183 833 188 842 q 160 729 165 806 l 160 704 l 72 704 l 74 721 q 92 840 78 796 q 136 910 107 885 q 201 949 163 936 q 294 966 233 960 q 417 972 356 972 l 419 972 q 633 949 576 969 q 697 913 672 936 q 742 842 728 886 q 761 722 757 797 l 761 696 q 742 576 757 619 q 699 504 728 532 q 675 486 681 489 l 703 465 q 743 395 729 439 q 761 281 757 351 l 761 250 q 742 130 757 175 q 697 58 728 85 q 633 22 676 39 q 538 6 601 11 q 417 0 474 0 q 294 6 356 0 q 201 24 233 13 z "},"4":{"ha":833,"x_min":83,"x_max":749,"o":"m 208 450 q 144 488 169 464 q 101 557 115 514 q 83 672 88 600 l 83 972 l 168 972 l 168 663 q 190 561 175 586 q 257 528 201 546 q 417 511 313 511 q 534 506 475 511 q 625 490 593 500 q 664 471 649 481 l 664 972 l 749 972 l 749 0 l 664 0 l 664 288 l 663 294 q 642 381 656 360 q 621 395 642 383 q 550 418 600 407 q 417 429 500 429 q 314 433 364 429 q 208 450 242 440 z "},"5":{"ha":833,"x_min":72,"x_max":760,"o":"m 701 465 q 743 395 729 439 q 760 281 757 351 l 760 250 q 742 132 757 176 q 697 60 726 88 q 664 38 685 49 q 632 22 638 25 q 624 21 628 22 q 617 18 619 19 l 590 13 l 524 4 q 417 0 472 0 q 294 6 354 0 q 200 24 233 13 q 136 61 160 38 l 128 68 l 182 138 q 250 103 192 121 q 417 86 308 86 q 510 92 469 86 l 518 93 l 526 93 l 536 96 q 567 100 538 96 q 630 122 610 110 q 650 136 650 133 q 672 240 668 167 l 672 290 q 650 393 668 365 q 628 408 650 396 q 555 432 607 421 q 417 443 503 443 q 311 447 364 443 q 200 465 238 453 q 136 504 163 481 q 91 575 106 531 q 72 694 76 619 l 72 721 q 91 840 76 796 q 136 911 106 885 q 200 949 168 938 q 295 966 233 960 q 417 972 357 972 l 642 972 l 642 885 l 403 885 q 247 867 301 883 q 182 835 192 850 q 160 729 165 804 l 160 685 q 182 581 165 608 q 250 547 192 564 q 417 529 308 529 q 539 524 478 529 q 632 507 600 518 q 689 476 664 494 l 701 465 z "},"6":{"ha":833,"x_min":72,"x_max":761,"o":"m 675 707 l 675 733 q 665 799 671 775 q 651 836 660 822 q 560 873 640 858 q 428 888 479 888 l 417 888 q 251 869 308 888 q 182 836 193 851 q 160 729 165 806 l 160 488 q 226 513 190 506 q 311 525 263 521 q 417 531 357 531 q 522 525 476 531 q 624 510 589 519 q 699 469 658 500 q 742 397 728 442 q 761 279 757 353 l 761 250 q 742 130 757 175 q 699 58 728 85 q 633 21 671 35 q 540 5 601 10 q 418 0 478 0 l 417 0 q 201 24 261 0 q 182 31 197 25 q 135 61 151 44 q 108 94 117 79 q 90 133 99 108 q 80 176 88 144 q 72 243 72 207 l 72 724 q 91 844 76 799 q 135 915 106 889 q 201 951 158 936 q 415 972 263 972 q 540 967 479 972 q 633 951 601 963 q 730 874 703 931 q 761 724 757 817 l 761 707 l 675 707 m 182 392 q 160 286 165 364 l 160 242 q 182 138 165 168 q 247 104 192 121 q 404 86 301 88 l 417 86 l 417 85 l 418 86 l 433 86 q 588 105 535 88 q 651 138 642 122 q 665 176 660 153 q 675 242 671 200 l 675 288 q 665 353 671 329 q 651 392 660 376 q 583 426 642 408 q 417 443 525 443 q 250 426 308 443 q 182 392 192 408 z "},"7":{"ha":833,"x_min":104,"x_max":728,"o":"m 664 911 q 709 840 694 885 q 728 719 724 794 l 728 0 l 715 0 l 654 0 l 640 0 l 640 729 q 617 833 635 803 q 549 867 607 850 q 381 885 492 885 l 104 885 l 104 972 l 381 972 q 506 966 444 972 q 599 949 567 960 q 664 911 638 936 z "},"8":{"ha":833,"x_min":74,"x_max":760,"o":"m 760 694 q 741 576 756 619 q 697 504 726 532 q 675 486 688 494 q 683 481 681 483 q 689 476 686 478 l 701 465 q 743 396 729 439 q 760 281 757 353 l 760 250 q 742 132 757 176 q 697 60 726 88 q 632 24 668 35 q 539 6 600 13 q 417 0 478 0 q 294 6 356 0 q 201 24 233 13 q 136 60 165 35 q 92 132 107 88 q 74 250 76 176 l 74 279 q 90 394 76 351 q 132 465 104 438 l 144 476 l 158 486 q 136 504 146 494 q 92 576 107 532 q 74 693 78 619 l 74 719 q 92 839 78 794 q 136 911 107 883 q 201 949 164 935 q 297 966 235 960 q 417 972 358 972 q 537 966 475 972 q 632 949 599 960 q 697 911 669 935 q 741 839 726 883 q 760 721 756 794 l 760 694 m 650 581 q 674 686 668 608 l 674 729 q 650 835 668 806 q 582 867 640 850 q 417 885 524 885 q 251 867 310 885 q 183 835 193 850 q 160 729 165 806 l 160 685 q 183 581 167 607 q 251 547 193 564 q 417 529 308 529 q 583 547 525 529 q 650 581 640 564 m 650 138 q 674 240 667 163 l 674 292 q 650 393 667 367 q 628 408 650 396 q 556 432 607 421 q 417 443 504 443 q 278 432 329 443 q 205 408 226 421 q 183 393 183 396 q 160 290 167 367 l 160 239 q 183 136 165 165 q 205 121 183 133 q 278 97 226 108 q 417 86 329 86 q 556 97 504 86 q 629 121 608 108 q 650 138 650 133 z "},"9":{"ha":833,"x_min":72,"x_max":760,"o":"m 697 913 q 742 842 726 886 q 760 724 757 797 l 760 251 q 742 132 757 176 q 697 60 726 88 q 632 24 668 35 q 532 6 600 13 q 417 0 464 0 l 415 0 q 296 6 357 0 q 201 24 235 13 q 136 60 163 35 l 132 64 l 128 69 q 90 137 103 94 q 74 244 78 179 l 72 251 l 72 279 l 160 279 l 160 242 q 182 138 164 172 q 250 105 192 122 q 415 88 308 88 l 426 88 q 476 89 461 88 l 482 89 q 617 115 558 93 q 654 147 643 132 q 668 179 665 163 q 672 240 671 196 l 672 486 l 632 467 q 521 447 594 453 q 417 443 469 443 q 311 447 364 443 q 136 504 174 460 q 91 575 106 531 q 72 694 76 619 l 72 721 q 91 840 76 796 q 136 911 106 885 q 201 950 161 936 q 294 967 233 961 q 417 972 356 972 l 419 972 q 537 967 475 972 q 632 950 599 961 q 697 913 665 939 m 650 581 q 672 686 668 615 l 672 731 q 650 835 668 803 q 586 867 640 850 q 431 885 532 883 l 401 885 q 247 867 301 883 q 182 835 192 850 q 160 729 164 803 l 160 686 q 182 581 164 615 q 250 547 192 564 q 417 529 308 529 q 583 547 525 529 q 650 581 640 564 z "}," ":{"ha":833,"x_min":0,"x_max":0,"o":""},"A":{"ha":833,"x_min":107,"x_max":726,"o":"m 600 950 q 693 877 665 926 q 726 724 721 828 l 726 0 l 639 0 l 639 432 l 194 432 l 194 0 l 107 0 l 107 719 q 142 875 113 824 q 236 950 171 926 q 417 972 301 972 q 600 950 539 972 m 639 525 l 639 735 q 617 836 635 810 q 417 886 589 886 q 217 835 247 886 q 194 731 200 807 l 194 525 l 639 525 z "},"B":{"ha":833,"x_min":92,"x_max":742,"o":"m 367 0 l 92 0 l 92 972 l 447 972 q 565 940 521 965 q 631 856 608 915 q 653 689 653 797 q 640 561 653 626 l 636 540 l 654 529 q 717 452 693 506 q 742 283 742 399 q 689 67 742 131 q 646 35 675 50 q 542 8 604 14 q 382 1 481 1 l 372 1 l 367 0 m 181 569 l 550 564 l 556 589 q 564 689 564 621 q 553 793 564 750 q 525 854 543 836 q 474 876 513 867 q 322 885 435 885 q 247 883 278 885 q 208 882 217 882 l 181 881 l 181 569 m 181 90 l 504 90 l 506 92 l 514 93 q 608 114 582 99 q 653 236 644 132 q 654 283 654 254 q 640 412 654 378 q 607 456 625 446 q 558 471 594 464 l 499 479 l 181 479 l 181 90 z "},"C":{"ha":833,"x_min":119,"x_max":713,"o":"m 246 22 q 151 99 183 43 q 119 283 119 156 l 119 688 q 149 873 119 815 q 253 951 178 931 q 494 972 329 971 l 713 972 l 713 882 l 371 882 l 351 881 q 253 860 285 876 q 208 688 208 838 l 208 283 q 222 155 208 189 q 254 111 236 121 q 367 89 286 93 l 713 89 l 713 0 l 367 0 l 303 6 l 276 11 l 246 22 z "},"D":{"ha":833,"x_min":90,"x_max":743,"o":"m 382 972 q 606 955 535 971 q 710 880 676 939 q 743 689 743 821 l 743 285 q 711 99 743 157 q 617 22 679 42 l 588 13 l 561 6 l 497 0 l 90 0 l 90 972 l 382 972 m 656 689 q 610 861 656 840 q 511 883 583 878 l 179 885 l 179 90 l 497 90 q 608 113 576 94 q 641 157 626 124 q 656 285 656 190 l 656 689 z "},"E":{"ha":833,"x_min":121,"x_max":713,"o":"m 244 24 q 152 101 183 44 q 121 285 121 157 l 121 689 q 149 874 121 815 q 253 951 178 932 q 494 972 329 971 l 713 972 l 713 883 l 371 883 l 353 882 q 253 861 285 876 q 208 689 208 836 l 208 533 l 713 533 l 713 439 l 208 439 l 208 285 q 256 113 208 139 q 368 89 286 96 l 713 89 l 713 0 l 367 1 l 303 7 l 278 13 l 244 24 z "},"F":{"ha":833,"x_min":121,"x_max":713,"o":"m 253 861 q 220 811 233 847 q 207 688 207 775 l 207 535 l 713 535 l 713 439 l 207 439 l 207 0 l 121 0 l 121 688 q 154 880 121 821 q 258 955 188 939 q 481 972 329 971 l 713 972 l 713 882 l 371 882 l 353 881 q 253 861 286 876 z "},"G":{"ha":833,"x_min":72,"x_max":761,"o":"m 200 24 q 136 63 160 39 q 91 133 106 89 q 72 251 76 176 l 72 721 q 91 840 76 796 q 136 910 106 883 q 200 949 157 932 q 294 966 233 960 q 417 972 354 972 q 539 967 478 972 q 632 950 600 961 q 697 913 671 935 q 742 842 726 886 q 760 724 757 797 l 761 704 l 672 722 l 672 732 q 650 836 668 801 q 628 851 650 839 q 555 874 607 863 q 417 885 503 885 q 251 868 308 885 q 182 835 193 851 q 160 729 165 804 l 160 243 q 182 138 165 168 q 251 104 193 121 q 417 88 308 88 q 555 99 503 88 q 628 122 607 110 q 650 136 650 133 q 672 240 668 171 l 672 406 l 403 406 l 403 501 l 760 501 l 760 250 q 742 131 757 176 q 697 60 726 86 q 632 22 671 38 q 537 6 599 13 q 417 0 475 0 q 295 6 357 0 q 200 24 233 13 z "},"H":{"ha":833,"x_min":115,"x_max":718,"o":"m 200 972 l 200 510 l 632 510 l 632 972 l 718 972 l 718 0 l 633 0 l 632 417 l 200 417 l 200 0 l 115 0 l 115 972 l 200 972 z "},"I":{"ha":417,"x_min":165,"x_max":251,"o":"m 165 972 l 251 972 l 251 0 l 165 0 l 165 972 z "},"J":{"ha":833,"x_min":75,"x_max":757,"o":"m 139 58 q 95 128 110 85 q 76 246 81 171 l 75 265 l 161 247 l 161 238 q 185 135 167 165 q 206 119 185 132 q 279 96 228 107 q 417 85 331 85 q 579 102 522 85 q 647 135 636 119 q 669 240 665 165 l 669 972 l 757 972 l 757 250 q 738 133 753 178 q 694 61 724 89 q 629 22 668 35 q 537 6 597 11 q 417 0 476 0 q 295 6 356 0 q 203 22 235 11 q 139 58 168 33 z "},"K":{"ha":833,"x_min":69,"x_max":763,"o":"m 675 972 l 763 972 l 763 675 q 744 559 758 603 q 704 489 731 515 l 692 478 l 676 468 l 692 458 l 704 449 q 744 378 731 422 q 763 260 758 333 l 763 0 l 675 0 l 675 271 q 653 375 668 347 q 641 386 653 375 q 576 410 629 397 q 447 424 524 422 l 158 424 l 158 0 l 69 0 l 69 972 l 158 972 l 158 513 l 447 513 q 568 525 522 514 q 633 548 614 536 q 653 563 653 560 q 675 665 668 588 l 675 972 z "},"L":{"ha":778,"x_min":104,"x_max":728,"o":"m 193 242 q 215 139 200 161 q 283 104 225 122 q 450 86 342 86 l 728 86 l 728 0 l 450 0 q 326 6 386 0 q 233 22 265 11 q 168 61 196 33 q 123 133 138 89 q 104 251 108 176 l 104 972 l 193 972 l 193 242 z "},"M":{"ha":833,"x_min":83,"x_max":749,"o":"m 671 972 l 749 972 l 749 0 l 665 0 l 665 800 l 457 440 l 376 440 l 168 800 l 168 0 l 83 0 l 83 972 l 161 972 l 193 926 l 417 538 l 640 926 l 671 972 z "},"N":{"ha":833,"x_min":117,"x_max":718,"o":"m 117 972 l 185 972 l 632 199 l 632 972 l 718 972 l 718 0 l 650 0 l 203 775 l 203 0 l 117 0 l 117 972 z "},"O":{"ha":833,"x_min":74,"x_max":761,"o":"m 699 913 q 744 842 729 886 q 761 724 758 799 l 761 250 q 744 131 758 175 q 699 60 729 86 q 635 22 675 38 q 540 6 601 11 q 418 0 479 0 q 295 6 357 0 q 203 24 233 13 q 136 61 163 36 q 92 133 107 88 q 74 251 78 178 l 74 721 q 92 840 78 794 q 136 911 107 885 q 203 950 163 935 q 295 967 233 961 q 418 972 357 972 q 540 967 479 972 q 635 950 601 961 q 699 913 675 935 m 653 136 q 675 239 668 164 l 675 733 q 651 836 668 810 q 630 851 651 839 q 557 875 608 864 q 418 886 506 886 q 291 877 342 886 q 215 856 240 868 q 185 835 189 844 q 161 729 167 806 l 161 242 q 185 138 168 164 q 215 117 189 129 q 291 96 240 106 q 418 86 342 86 q 557 97 506 86 q 633 122 608 108 q 653 136 657 136 z "},"P":{"ha":833,"x_min":90,"x_max":742,"o":"m 742 688 q 710 504 742 561 q 617 428 679 447 l 586 417 l 560 411 l 497 406 l 178 404 l 178 0 l 90 0 l 90 972 l 367 972 q 610 951 533 971 q 714 872 686 931 q 742 688 742 814 m 607 517 q 653 688 653 540 q 640 814 653 776 q 607 860 628 851 q 490 883 565 883 l 178 883 l 178 494 l 494 494 q 607 517 571 496 z "},"Q":{"ha":833,"x_min":72,"x_max":763,"o":"m 760 739 q 761 730 761 735 q 761 724 761 725 l 761 250 q 749 154 757 194 q 732 107 742 125 q 697 58 722 82 q 669 40 692 53 q 633 22 647 26 l 626 21 q 661 1 640 7 q 721 -4 682 -4 l 761 -81 q 749 -86 763 -83 q 717 -89 736 -89 q 553 -28 626 -89 q 524 4 542 -19 q 417 0 472 0 q 201 24 261 0 q 136 61 161 36 q 86 154 100 93 q 72 250 78 182 l 72 719 l 74 735 l 74 740 q 101 864 79 815 q 136 911 114 893 q 201 950 160 935 q 283 965 232 960 q 417 972 333 972 q 547 965 497 972 q 633 950 592 963 q 697 914 672 938 q 733 863 722 892 q 760 739 754 819 m 669 200 q 672 240 672 225 l 672 733 q 663 808 671 771 q 650 836 657 824 q 637 847 650 838 q 592 865 624 856 q 508 881 561 875 q 417 885 478 885 q 314 881 346 885 q 221 858 254 872 q 183 835 188 844 q 172 810 176 825 q 160 729 164 786 l 160 242 q 165 199 163 211 q 183 138 169 161 q 213 117 188 129 q 290 95 239 104 q 417 86 342 86 q 556 97 504 86 q 631 122 607 108 q 651 136 656 136 q 669 200 661 156 z "},"R":{"ha":833,"x_min":76,"x_max":758,"o":"m 565 414 l 758 0 l 663 0 l 474 406 l 165 404 l 165 0 l 76 0 l 76 972 l 368 972 q 590 956 519 972 q 694 881 661 940 q 728 689 728 821 q 697 504 728 560 q 604 428 667 449 l 574 417 l 565 414 m 483 493 q 594 517 560 497 q 627 561 613 528 q 642 689 642 594 q 596 860 642 838 q 497 882 569 875 l 165 883 l 165 493 l 483 493 z "},"S":{"ha":833,"x_min":75,"x_max":761,"o":"m 163 279 l 163 242 q 185 138 167 172 q 216 117 190 129 q 293 96 242 106 q 419 86 344 86 l 435 86 l 450 86 q 510 90 478 86 q 556 97 543 94 q 623 117 600 106 q 651 136 646 128 q 676 240 669 163 l 676 292 q 651 394 671 364 q 630 409 651 397 q 557 432 608 421 q 419 443 506 443 q 315 449 358 443 q 204 465 233 456 q 138 504 168 476 q 94 576 108 531 q 75 694 79 621 l 75 721 q 94 840 79 794 q 138 911 108 885 q 204 949 167 935 q 297 966 236 960 q 419 972 357 972 q 541 966 481 972 q 635 949 601 960 q 699 913 675 933 q 744 842 729 886 q 761 724 758 797 l 761 706 l 676 706 l 676 732 q 651 835 669 811 q 630 850 651 838 q 557 874 608 863 q 419 885 506 885 q 253 867 311 885 q 185 833 194 850 q 163 728 167 801 l 163 683 q 185 579 167 617 q 253 547 194 564 q 419 529 313 529 q 539 523 478 529 q 635 507 600 517 q 692 475 669 496 l 703 464 q 744 394 731 438 q 761 279 758 351 l 761 250 q 744 135 758 178 q 703 64 731 92 l 700 60 l 694 56 q 671 38 690 50 l 635 22 q 590 13 604 15 q 525 4 549 6 q 478 1 494 1 l 474 1 q 419 0 454 0 q 297 6 357 0 q 204 24 236 13 q 138 61 165 35 q 95 131 110 88 q 76 243 81 174 l 75 251 l 75 279 l 163 279 z "},"T":{"ha":833,"x_min":71,"x_max":763,"o":"m 368 878 l 71 878 l 71 972 l 763 972 l 763 878 l 461 878 l 461 0 l 368 0 l 368 878 z "},"U":{"ha":833,"x_min":71,"x_max":763,"o":"m 135 61 q 90 133 104 88 q 71 253 75 178 l 71 972 l 158 972 l 158 243 q 182 139 164 168 q 250 105 192 122 q 417 88 308 88 q 557 99 504 88 q 631 122 610 110 q 653 138 653 135 q 675 242 669 165 l 675 972 l 763 972 l 763 251 q 744 131 760 176 q 699 60 729 86 q 633 22 674 38 q 540 6 601 11 q 417 0 478 0 q 294 6 356 0 q 200 24 233 13 q 135 61 160 36 z "},"V":{"ha":833,"x_min":74,"x_max":761,"o":"m 674 972 l 761 972 l 761 532 l 685 390 l 453 0 l 375 0 l 74 522 l 74 972 l 161 972 l 161 540 l 186 501 l 418 101 l 674 539 l 674 972 z "},"W":{"ha":833,"x_min":83,"x_max":750,"o":"m 667 972 l 750 972 l 750 0 l 672 0 l 642 46 l 417 433 l 193 47 l 161 0 l 83 0 l 83 972 l 168 972 l 168 172 l 375 533 l 458 533 l 667 172 l 667 972 z "},"X":{"ha":833,"x_min":103,"x_max":732,"o":"m 192 0 l 103 0 l 103 260 q 121 377 107 333 q 163 447 135 421 l 175 458 q 188 468 179 463 l 189 468 q 181 474 183 471 q 175 478 178 476 l 163 489 q 121 559 135 515 q 103 675 107 603 l 103 972 l 192 972 l 192 665 q 214 561 196 592 q 273 532 222 549 q 418 513 324 515 q 528 524 483 514 q 596 544 574 533 q 622 561 618 554 q 644 665 639 592 l 644 972 l 732 972 l 732 676 q 715 560 729 604 q 674 489 701 517 l 660 478 l 647 468 q 660 458 656 463 l 674 447 q 715 376 701 419 q 732 261 729 332 l 732 0 l 644 0 l 644 272 q 622 375 639 344 q 561 404 611 388 q 417 425 511 421 q 272 404 322 421 q 214 375 222 388 q 192 271 196 344 l 192 0 z "},"Y":{"ha":833,"x_min":117,"x_max":717,"o":"m 201 972 l 201 703 q 224 601 206 633 q 417 551 251 551 q 610 600 583 551 q 632 700 628 632 l 632 972 l 717 972 l 717 710 q 684 560 711 608 q 593 490 657 513 q 464 469 543 474 l 464 0 l 381 0 l 381 468 q 240 490 292 472 q 150 562 178 513 q 117 713 122 611 l 117 972 l 201 972 z "},"Z":{"ha":833,"x_min":72,"x_max":761,"o":"m 674 279 l 761 279 l 761 250 q 742 130 757 175 q 699 58 728 85 q 633 22 674 38 q 540 6 601 11 q 417 0 478 0 q 294 6 356 0 q 201 22 233 11 l 183 31 l 179 33 q 136 61 156 44 l 128 69 l 122 76 l 124 85 l 125 88 l 125 89 l 576 871 q 417 886 511 886 q 252 868 310 886 q 183 835 194 850 q 161 729 165 804 l 161 706 l 72 706 l 74 721 q 92 840 78 794 q 136 911 107 885 q 201 949 164 936 q 294 966 233 960 q 417 972 356 972 q 540 967 478 972 q 633 950 601 961 l 636 949 q 690 918 675 932 l 700 910 l 238 108 q 417 86 304 86 q 588 104 540 86 q 651 138 636 122 q 674 240 668 164 l 674 279 z "},"a":{"ha":833,"x_min":107,"x_max":726,"o":"m 199 774 l 194 729 l 194 0 l 107 0 l 107 719 q 142 875 113 824 q 236 949 171 926 q 417 972 299 972 q 599 950 533 972 q 692 877 664 926 q 726 724 721 828 l 726 0 l 661 0 l 199 774 m 639 186 l 639 733 q 617 836 632 811 q 417 886 589 886 q 249 863 303 886 l 639 186 z "},"b":{"ha":833,"x_min":92,"x_max":742,"o":"m 367 0 l 92 0 l 92 972 l 447 972 q 565 940 521 965 q 631 856 608 915 q 653 689 653 797 q 640 561 653 626 l 636 540 l 654 529 q 717 452 693 506 q 742 283 742 399 q 689 67 742 131 q 646 35 675 50 q 542 8 604 14 q 382 1 481 1 l 372 1 l 367 0 m 181 569 l 550 564 l 556 589 q 564 689 564 621 q 553 793 564 750 q 525 854 543 836 q 474 876 513 867 q 322 885 435 885 q 247 883 278 885 q 208 882 217 882 l 181 881 l 181 569 m 181 90 l 504 90 l 506 92 l 514 93 q 608 114 582 99 q 653 236 644 132 q 654 283 654 254 q 640 412 654 378 q 607 456 625 446 q 558 471 594 464 l 499 479 l 181 479 l 181 90 z "},"c":{"ha":833,"x_min":119,"x_max":713,"o":"m 246 22 q 151 99 183 43 q 119 283 119 156 l 119 688 q 149 873 119 815 q 253 951 178 931 q 494 972 329 971 l 713 972 l 713 882 l 371 882 l 351 881 q 253 860 285 876 q 208 688 208 838 l 208 283 q 222 155 208 189 q 254 111 236 121 q 367 89 286 93 l 713 89 l 713 0 l 367 0 l 303 6 l 276 11 l 246 22 z "},"d":{"ha":833,"x_min":90,"x_max":743,"o":"m 382 972 q 606 955 535 971 q 710 880 676 939 q 743 689 743 821 l 743 285 q 711 99 743 157 q 617 22 679 42 l 588 13 l 561 6 l 497 0 l 90 0 l 90 972 l 382 972 m 656 689 q 610 861 656 840 q 511 883 583 878 l 179 885 l 179 90 l 497 90 q 608 113 576 94 q 641 157 626 124 q 656 285 656 190 l 656 689 z "},"e":{"ha":833,"x_min":121,"x_max":713,"o":"m 244 24 q 152 101 183 44 q 121 285 121 157 l 121 689 q 149 874 121 815 q 253 951 178 932 q 494 972 329 971 l 713 972 l 713 883 l 371 883 l 353 882 q 253 861 285 876 q 208 689 208 836 l 208 533 l 713 533 l 713 439 l 208 439 l 208 285 q 256 113 208 139 q 368 89 286 96 l 713 89 l 713 0 l 367 1 l 303 7 l 278 13 l 244 24 z "},"f":{"ha":833,"x_min":121,"x_max":713,"o":"m 253 861 q 220 811 233 847 q 207 688 207 775 l 207 535 l 713 535 l 713 439 l 207 439 l 207 0 l 121 0 l 121 688 q 154 880 121 821 q 258 955 188 939 q 481 972 329 971 l 713 972 l 713 882 l 371 882 l 353 881 q 253 861 286 876 z "},"g":{"ha":833,"x_min":72,"x_max":761,"o":"m 200 24 q 136 63 160 39 q 91 133 106 89 q 72 251 76 176 l 72 721 q 91 840 76 796 q 136 910 106 883 q 200 949 157 932 q 294 966 233 960 q 417 972 354 972 q 539 967 478 972 q 632 950 600 961 q 697 913 671 935 q 742 842 726 886 q 760 724 757 797 l 761 704 l 672 722 l 672 732 q 650 836 668 801 q 628 851 650 839 q 555 874 607 863 q 417 885 503 885 q 251 868 308 885 q 182 835 193 851 q 160 729 165 804 l 160 243 q 182 138 165 168 q 251 104 193 121 q 417 88 308 88 q 555 99 503 88 q 628 122 607 110 q 650 136 650 133 q 672 240 668 171 l 672 406 l 403 406 l 403 501 l 760 501 l 760 250 q 742 131 757 176 q 697 60 726 86 q 632 22 671 38 q 537 6 599 13 q 417 0 475 0 q 295 6 357 0 q 200 24 233 13 z "},"h":{"ha":833,"x_min":115,"x_max":718,"o":"m 200 972 l 200 510 l 632 510 l 632 972 l 718 972 l 718 0 l 633 0 l 632 417 l 200 417 l 200 0 l 115 0 l 115 972 l 200 972 z "},"i":{"ha":417,"x_min":165,"x_max":251,"o":"m 165 972 l 251 972 l 251 0 l 165 0 l 165 972 z "},"j":{"ha":833,"x_min":75,"x_max":757,"o":"m 342 885 l 669 885 l 669 240 q 647 135 665 165 q 579 102 636 119 q 417 85 522 85 q 279 96 331 85 q 206 119 228 107 q 185 135 185 132 q 161 238 167 165 l 161 247 l 75 265 l 76 246 q 95 128 81 171 q 139 58 110 85 q 203 22 168 33 q 295 6 235 11 q 417 0 356 0 q 537 6 476 0 q 629 22 597 11 q 694 61 668 35 q 738 133 724 89 q 757 250 753 178 l 757 972 l 342 972 l 342 885 z "},"k":{"ha":833,"x_min":64,"x_max":768,"o":"m 768 0 l 667 0 l 407 447 l 143 0 l 64 0 l 64 972 l 150 972 l 150 179 l 610 972 l 708 972 l 457 535 l 768 0 z "},"l":{"ha":833,"x_min":104,"x_max":728,"o":"m 193 242 q 215 139 200 161 q 283 104 225 122 q 450 86 342 86 l 728 86 l 728 0 l 450 0 q 326 6 386 0 q 233 22 265 11 q 168 61 196 33 q 123 133 138 89 q 104 251 108 176 l 104 972 l 193 972 l 193 242 z "},"m":{"ha":833,"x_min":83,"x_max":749,"o":"m 671 972 l 749 972 l 749 0 l 665 0 l 665 800 l 457 440 l 376 440 l 168 800 l 168 0 l 83 0 l 83 972 l 161 972 l 193 926 l 417 538 l 640 926 l 671 972 z "},"n":{"ha":833,"x_min":117,"x_max":718,"o":"m 117 972 l 185 972 l 632 199 l 632 972 l 718 972 l 718 0 l 650 0 l 203 775 l 203 0 l 117 0 l 117 972 z "},"o":{"ha":833,"x_min":74,"x_max":760,"o":"m 136 61 q 92 133 107 88 q 74 251 78 178 l 74 719 q 92 840 78 794 q 136 911 107 885 q 201 949 164 936 q 294 966 233 960 q 417 972 356 972 q 540 966 479 972 q 632 949 600 960 q 697 913 668 938 q 741 842 726 886 q 760 722 756 797 l 760 250 q 741 131 756 175 q 697 60 726 86 q 632 24 668 35 q 540 6 600 13 q 417 0 479 0 q 294 6 356 0 q 201 24 233 13 q 136 61 164 36 m 417 886 q 247 867 317 886 l 658 154 q 672 239 671 188 l 672 732 q 650 835 668 807 q 628 851 650 838 q 556 875 607 864 q 417 886 504 886 m 175 815 q 161 728 165 788 l 161 242 q 183 138 165 172 q 252 104 194 122 q 417 86 310 86 q 586 106 517 86 l 175 815 z "},"p":{"ha":833,"x_min":90,"x_max":742,"o":"m 742 688 q 710 504 742 561 q 617 428 679 447 l 586 417 l 560 411 l 497 406 l 178 404 l 178 0 l 90 0 l 90 972 l 367 972 q 610 951 533 971 q 714 872 686 931 q 742 688 742 814 m 607 517 q 653 688 653 540 q 640 814 653 776 q 607 860 628 851 q 490 883 565 883 l 178 883 l 178 494 l 494 494 q 607 517 571 496 z "},"q":{"ha":833,"x_min":72,"x_max":763,"o":"m 760 739 q 761 730 761 735 q 761 724 761 725 l 761 250 q 749 154 757 194 q 732 107 742 125 q 697 58 722 82 q 669 40 692 53 q 633 22 647 26 l 626 21 q 661 1 640 7 q 721 -4 682 -4 l 761 -81 q 749 -86 763 -83 q 717 -89 736 -89 q 553 -28 626 -89 q 524 4 542 -19 q 417 0 472 0 q 201 24 261 0 q 136 61 161 36 q 86 154 100 93 q 72 250 78 182 l 72 719 l 74 735 l 74 740 q 101 864 79 815 q 136 911 114 893 q 201 950 160 935 q 283 965 232 960 q 417 972 333 972 q 547 965 497 972 q 633 950 592 963 q 697 914 672 938 q 733 863 722 892 q 760 739 754 819 m 669 200 q 672 240 672 225 l 672 733 q 663 808 671 771 q 650 836 657 824 q 637 847 650 838 q 592 865 624 856 q 508 881 561 875 q 417 885 478 885 q 314 881 346 885 q 221 858 254 872 q 183 835 188 844 q 172 810 176 825 q 160 729 164 786 l 160 242 q 165 199 163 211 q 183 138 169 161 q 213 117 188 129 q 290 95 239 104 q 417 86 342 86 q 556 97 504 86 q 631 122 607 108 q 651 136 656 136 q 669 200 661 156 z "},"r":{"ha":833,"x_min":76,"x_max":758,"o":"m 565 414 l 758 0 l 663 0 l 474 406 l 165 404 l 165 0 l 76 0 l 76 972 l 368 972 q 590 956 519 972 q 694 881 661 940 q 728 689 728 821 q 697 504 728 560 q 604 428 667 449 l 574 417 l 565 414 m 483 493 q 594 517 560 497 q 627 561 613 528 q 642 689 642 594 q 596 860 642 838 q 497 882 569 875 l 165 883 l 165 493 l 483 493 z "},"s":{"ha":833,"x_min":75,"x_max":761,"o":"m 163 279 l 163 242 q 185 138 167 172 q 216 117 190 129 q 293 96 242 106 q 419 86 344 86 l 435 86 l 450 86 q 510 90 478 86 q 556 97 543 94 q 623 117 600 106 q 651 136 646 128 q 676 240 669 163 l 676 292 q 651 394 671 364 q 630 409 651 397 q 557 432 608 421 q 419 443 506 443 q 315 449 358 443 q 204 465 233 456 q 138 504 168 476 q 94 576 108 531 q 75 694 79 621 l 75 721 q 94 840 79 794 q 138 911 108 885 q 204 949 167 935 q 297 966 236 960 q 419 972 357 972 q 541 966 481 972 q 635 949 601 960 q 699 913 675 933 q 744 842 729 886 q 761 724 758 797 l 761 706 l 676 706 l 676 732 q 651 835 669 811 q 630 850 651 838 q 557 874 608 863 q 419 885 506 885 q 253 867 311 885 q 185 833 194 850 q 163 728 167 801 l 163 683 q 185 579 167 617 q 253 547 194 564 q 419 529 313 529 q 539 523 478 529 q 635 507 600 517 q 692 475 669 496 l 703 464 q 744 394 731 438 q 761 279 758 351 l 761 250 q 744 135 758 178 q 703 64 731 92 l 700 60 l 694 56 q 671 38 690 50 l 635 22 q 590 13 604 15 q 525 4 549 6 q 478 1 494 1 l 474 1 q 419 0 454 0 q 297 6 357 0 q 204 24 236 13 q 138 61 165 35 q 95 131 110 88 q 76 243 81 174 l 75 251 l 75 279 l 163 279 z "},"t":{"ha":833,"x_min":71,"x_max":763,"o":"m 368 878 l 71 878 l 71 972 l 763 972 l 763 878 l 461 878 l 461 0 l 368 0 l 368 878 z "},"u":{"ha":833,"x_min":71,"x_max":763,"o":"m 135 61 q 90 133 104 88 q 71 253 75 178 l 71 972 l 158 972 l 158 243 q 182 139 164 168 q 250 105 192 122 q 417 88 308 88 q 557 99 504 88 q 631 122 610 110 q 653 138 653 135 q 675 242 669 165 l 675 972 l 763 972 l 763 251 q 744 131 760 176 q 699 60 729 86 q 633 22 674 38 q 540 6 601 11 q 417 0 478 0 q 294 6 356 0 q 200 24 233 13 q 135 61 160 36 z "},"v":{"ha":833,"x_min":74,"x_max":761,"o":"m 674 972 l 761 972 l 761 532 l 685 390 l 453 0 l 375 0 l 74 522 l 74 972 l 161 972 l 161 540 l 186 501 l 418 101 l 674 539 l 674 972 z "},"w":{"ha":833,"x_min":83,"x_max":750,"o":"m 667 972 l 750 972 l 750 0 l 672 0 l 642 46 l 417 433 l 193 47 l 161 0 l 83 0 l 83 972 l 168 972 l 168 172 l 375 533 l 458 533 l 667 172 l 667 972 z "},"x":{"ha":833,"x_min":103,"x_max":732,"o":"m 192 0 l 103 0 l 103 260 q 121 377 107 333 q 163 447 135 421 l 175 458 q 188 468 179 463 l 189 468 q 181 474 183 471 q 175 478 178 476 l 163 489 q 121 559 135 515 q 103 675 107 603 l 103 972 l 192 972 l 192 665 q 214 561 196 592 q 273 532 222 549 q 418 513 324 515 q 528 524 483 514 q 596 544 574 533 q 622 561 618 554 q 644 665 639 592 l 644 972 l 732 972 l 732 676 q 715 560 729 604 q 674 489 701 517 l 660 478 l 647 468 q 660 458 656 463 l 674 447 q 715 376 701 419 q 732 261 729 332 l 732 0 l 644 0 l 644 272 q 622 375 639 344 q 561 404 611 388 q 417 425 511 421 q 272 404 322 421 q 214 375 222 388 q 192 271 196 344 l 192 0 z "},"y":{"ha":833,"x_min":117,"x_max":717,"o":"m 201 972 l 201 703 q 224 601 206 633 q 417 551 251 551 q 610 600 583 551 q 632 700 628 632 l 632 972 l 717 972 l 717 710 q 684 560 711 608 q 593 490 657 513 q 464 469 543 474 l 464 0 l 381 0 l 381 468 q 240 490 292 472 q 150 562 178 513 q 117 713 122 611 l 117 972 l 201 972 z "},"z":{"ha":833,"x_min":72,"x_max":761,"o":"m 674 279 l 761 279 l 761 250 q 742 130 757 175 q 699 58 728 85 q 633 22 674 38 q 540 6 601 11 q 417 0 478 0 q 294 6 356 0 q 201 22 233 11 l 183 31 l 179 33 q 136 61 156 44 l 128 69 l 122 76 l 124 85 l 125 88 l 125 89 l 576 871 q 417 886 511 886 q 252 868 310 886 q 183 835 194 850 q 161 729 165 804 l 161 706 l 72 706 l 74 721 q 92 840 78 794 q 136 911 107 885 q 201 949 164 936 q 294 966 233 960 q 417 972 356 972 q 540 967 478 972 q 633 950 601 961 l 636 949 q 690 918 675 932 l 700 910 l 238 108 q 417 86 304 86 q 588 104 540 86 q 651 138 636 122 q 674 240 668 164 l 674 279 z "},"—":{"ha":833,"x_min":72,"x_max":761,"o":"m 761 532 l 72 532 l 72 440 l 761 440 l 761 532 z "},"–":{"ha":833,"x_min":0,"x_max":0,"o":""},"-":{"ha":833,"x_min":0,"x_max":0,"o":""}}}
